PathFileType	4	(X/Y/Z)	./resultDataOpenSim/trcMotMarkerGrf/sub09/qtm-05-06.trc
DataRate	CameraRate	NumFrames	NumMarkers	Units	OrigDataRate	OrigDataStartFrame	OrigNumFrames
250.000000	250.000000	6	24	m	250.000000	446	509
Frame#	Time	L.Toe.Tip			R.Toe.Tip			L.Ankle.Lat			R.Ankle.Lat			L.Ankle.Med			R.Ankle.Med			L.Heel			R.Heel			L.Knee.Lat			R.Knee.Lat			L.Knee.Med			R.Knee.Med			L.Thigh.Upper			R.Thigh.Upper			L.ASIS			R.ASIS			V.Sacral			L.Acromium			R.Acromium			C7			L.Elbow			R.Elbow			L.Wrist.Lat			R.Wrist.Lat
		X1	Y1	Z1	X2	Y2	Z2	X3	Y3	Z3	X4	Y4	Z4	X5	Y5	Z5	X6	Y6	Z6	X7	Y7	Z7	X8	Y8	Z8	X9	Y9	Z9	X10	Y10	Z10	X11	Y11	Z11	X12	Y12	Z12	X13	Y13	Z13	X14	Y14	Z14	X15	Y15	Z15	X16	Y16	Z16	X17	Y17	Z17	X18	Y18	Z18	X19	Y19	Z19	X20	Y20	Z20	X21	Y21	Z21	X22	Y22	Z22	X23	Y23	Z23	X24	Y24	Z24

446	1.78	1.723934	0.11944632	0.022931785	1.047047	0.039589339	0.11211671	1.5688372	0.092329035	-0.0073054123	0.90643069	0.086493338	0.14343446	1.5917544	0.12079818	0.08400237	0.94052218	0.12574712	0.058157724	1.5249863	0.031877551	0.046049068	0.83862336	0.086901531	0.088922121	1.4233296	0.48298496	-0.048580023	1.1162133	0.49591069	0.23112786	1.4277471	0.47791307	0.078683535	1.1228168	0.4844555	0.097361649	1.2586205	0.86370797	-0.087079537	1.2034711	0.88585759	0.28037969	1.3251032	0.95520378	-0.022058615	1.3132107	0.96524777	0.21887248	1.1497033	1.0119419	0.079065472	1.2862381	1.4140456	-0.079111431	1.2753191	1.4297592	0.25145362	1.2141182	1.468523	0.08524925	1.1296608	1.0808472	-0.14331115	1.1535256	1.0777506	0.34406085	1.2491522	0.85277223	-0.2027377	1.3624506	0.89321587	0.34572847
447	1.784	1.7275035	0.11671851	0.024113294	1.0472518	0.039643689	0.11186228	1.5721323	0.090598288	-0.0060785676	0.9071891	0.087770979	0.14406722	1.595424	0.11921418	0.08515074	0.94141336	0.12674545	0.058770901	1.5279806	0.030545897	0.047513027	0.83921407	0.088789049	0.089734536	1.4296376	0.48246694	-0.048217647	1.1126219	0.49826879	0.23400542	1.4343629	0.47763957	0.079058552	1.1275048	0.48358447	0.097932167	1.2644452	0.86287881	-0.087323928	1.2089931	0.88499202	0.28011475	1.3308969	0.95416031	-0.022256986	1.3189962	0.96412967	0.21871854	1.1555127	1.0110531	0.078799531	1.2912986	1.413169	-0.0793057	1.2800967	1.4287157	0.25131827	1.2190649	1.4674522	0.084945	1.1351688	1.0797803	-0.14353968	1.1583633	1.0766617	0.34346993	1.2545097	0.85165355	-0.20282554	1.3667244	0.89166085	0.34589328
448	1.788	1.7306326	0.11351078	0.025469917	1.0474628	0.039721448	0.11178564	1.5749752	0.088722148	-0.0049052808	0.9080189	0.089116033	0.14475434	1.5985616	0.11734821	0.086295175	0.94236616	0.12779911	0.059432583	1.5303274	0.029131104	0.048845708	0.83990012	0.090779113	0.090554868	1.4360444	0.48194008	-0.047825824	1.1110245	0.49981584	0.23616736	1.4411196	0.47746495	0.079457574	1.1320627	0.48260188	0.098297811	1.2701426	0.86216924	-0.087618921	1.2144626	0.88416	0.27982417	1.3367514	0.95317275	-0.022477444	1.3248069	0.96300602	0.21854739	1.161318	1.0101696	0.078507109	1.2963596	1.4123093	-0.079515929	1.2849207	1.4276782	0.25117023	1.2240185	1.4664153	0.084650236	1.1407279	1.0786961	-0.14378619	1.163203	1.0755848	0.34285324	1.2599137	0.85052963	-0.20290313	1.3709612	0.89008573	0.34606131
449	1.792	1.7333213	0.1099434	0.026999869	1.0476738	0.03979511	0.11187834	1.5774184	0.08672605	-0.0037943512	0.90888669	0.09050159	0.14549595	1.6011693	0.11519625	0.087445004	0.94338776	0.128914	0.060132035	1.532045	0.027694972	0.049923408	0.84067367	0.092871403	0.091396016	1.442518	0.48137976	-0.047404387	1.112032	0.50034463	0.23752745	1.4479304	0.4773489	0.079875805	1.1364425	0.48158332	0.09844587	1.2757137	0.86157216	-0.087956527	1.2199593	0.88330397	0.27952447	1.3426653	0.95225459	-0.022716298	1.3305317	0.96189971	0.21837205	1.1671357	1.0092799	0.078224123	1.3014214	1.4114688	-0.079740083	1.2897981	1.4266481	0.25101402	1.2289667	1.4654248	0.084383253	1.1463394	1.0775925	-0.14405041	1.1680351	1.0745258	0.34221131	1.2653592	0.84940405	-0.20297544	1.3751701	0.88848868	0.34624093
450	1.796	1.7355993	0.10607677	0.028703647	1.0478916	0.039858209	0.11208513	1.5795209	0.0846347	-0.0027273003	0.90981767	0.091923664	0.14628546	1.6032628	0.11277962	0.088636621	0.94448898	0.13009099	0.060857189	1.533163	0.026310882	0.050700208	0.84152586	0.09506604	0.092263056	1.4490752	0.48076937	-0.046968205	1.1141109	0.5004594	0.2386515	1.4547104	0.47724946	0.080296952	1.1409473	0.48062485	0.098619319	1.2811695	0.86107403	-0.088331337	1.2255519	0.88238514	0.27923415	1.3486286	0.95140966	-0.022972302	1.3359593	0.96084495	0.21820848	1.1729956	1.0083763	0.078005001	1.3064884	1.4106535	-0.079977598	1.2947223	1.42563	0.25084942	1.2339167	1.464468	0.084135175	1.1520003	1.0764811	-0.1443088	1.172833	1.0734875	0.34154063	1.2708447	0.84828293	-0.2030465	1.3793456	0.88687432	0.34643426
451	1.8	1.7375714	0.10187821	0.030599979	1.0481245	0.039932047	0.11236378	1.5813745	0.082507255	-0.0016607818	0.91086256	0.093404359	0.14710796	1.6049076	0.11020123	0.089916878	0.94569023	0.13132846	0.061594717	1.5337888	0.025059306	0.051241485	0.84245857	0.097367989	0.093142437	1.4557119	0.48010506	-0.046526464	1.116106	0.50062853	0.23991664	1.4613831	0.47712533	0.08068788	1.1458166	0.47975637	0.099002545	1.286541	0.86065341	-0.088744846	1.2312477	0.88141931	0.27895433	1.3546245	0.95063517	-0.023244774	1.3409544	0.95986222	0.21806418	1.1788895	1.0074649	0.077852928	1.3115656	1.4098662	-0.080228543	1.2996799	1.4246255	0.25067308	1.2388858	1.4635295	0.083897643	1.1577095	1.0753835	-0.14453645	1.1775494	1.0724683	0.34083465	1.2763752	0.8471728	-0.20311659	1.3834761	0.88524864	0.34663496
